<?xml version="1.0" encoding="UTF-8" standalone="no"?>
<svg
   xmlns:dc="http://purl.org/dc/elements/1.1/"
   xmlns:cc="http://creativecommons.org/ns#"
   xmlns:rdf="http://www.w3.org/1999/02/22-rdf-syntax-ns#"
   xmlns:svg="http://www.w3.org/2000/svg"
   xmlns="http://www.w3.org/2000/svg"
   viewBox="0 0 507.29599 263.13867"
   height="263.13867"
   width="507.29599"
   xml:space="preserve"
   id="svg2"
   version="1.1"><metadata
     id="metadata8"><rdf:RDF><cc:Work
         rdf:about=""><dc:format>image/svg+xml</dc:format><dc:type
           rdf:resource="http://purl.org/dc/dcmitype/StillImage" /></cc:Work></rdf:RDF></metadata><defs
     id="defs6"><clipPath
       id="clipPath18"
       clipPathUnits="userSpaceOnUse"><path
         id="path16"
         d="M 0,197.354 H 380.472 V 0 H 0 Z" /></clipPath><clipPath
       id="clipPath46"
       clipPathUnits="userSpaceOnUse"><path
         id="path44"
         d="M 53.692,157.507 41.273,116.805 c 5.625,8.822 15.524,14.305 26.955,14.305 v 0 c 5.096,0 9.257,-0.973 12.475,-2.659 v 0 l 12.991,38.301 z M 88.09,118.055 c 0.071,-0.597 0.189,-1.175 0.189,-1.801 v 0 c 0,-10.39 -6.648,-16.623 -29.192,-16.623 v 0 c -3.118,0 -6.547,0.209 -10.389,0.415 v 0 -0.312 c 0,-7.063 4.363,-11.427 12.363,-11.427 v 0 c 5.554,0 9.36,2.067 12.794,5.127 v 0 c 0.923,0.924 2.198,1.496 3.606,1.496 v 0 c 1.524,0 2.875,-0.682 3.808,-1.741 v 0 l 17.48,22.906 4.123,5.401 z m -37.418,-9.073 c 2.596,-0.208 4.986,-0.313 7.064,-0.313 v 0 c 14.233,0 18.181,3.221 18.181,7.168 v 0 c 0,2.702 -2.806,5.403 -8.312,5.403 v 0 c -7.688,0 -13.921,-5.297 -16.933,-12.258 M 30.602,81.833 42.099,84.31 c -3.866,3.813 -5.764,9.073 -5.764,15.113 v 0 c 0,0.482 0.048,0.945 0.068,1.419 v 0 z M 33.511,30.602 70.806,79.475 C 67.953,78.518 64.66,77.919 60.851,77.919 v 0 c -5.445,0 -9.936,0.997 -13.538,2.751 v 0 z" /></clipPath><linearGradient
       id="linearGradient56"
       spreadMethod="pad"
       gradientTransform="matrix(42.534103,105.2756,105.2756,-42.534103,35.479252,33.561447)"
       gradientUnits="userSpaceOnUse"
       y2="0"
       x2="1"
       y1="0"
       x1="0"><stop
         id="stop52"
         offset="0"
         style="stop-opacity:1;stop-color:#d7df38" /><stop
         id="stop54"
         offset="1"
         style="stop-opacity:1;stop-color:#34bdd1" /></linearGradient></defs><g
     transform="matrix(1.3333333,0,0,-1.3333333,0,263.13867)"
     id="g10"><g
       id="g12"><g
         clip-path="url(#clipPath18)"
         id="g14"><g
           transform="translate(349.8219,113.403)"
           id="g20"><path
             id="path22"
             style="fill:#ffffff;fill-opacity:1;fill-rule:nonzero;stroke:none"
             d="m 0,0 c -0.237,-1.687 -0.749,-2.878 -2.275,-5.227 l -13.746,-21.557 c -3.524,-5.521 -6.814,-9.164 -12.334,-9.164 -2.878,0 -4.872,0.841 -6.285,1.998 -1.164,0.953 -2.548,3.348 -1.28,5.963 0.956,1.969 2.694,0.662 4.687,0.615 1.992,-0.045 3.817,0.941 6.342,4.641 l -3.64,17.504 c -0.367,2.932 -1.223,3.831 -2.069,4.955 -0.343,0.456 -1.947,2.123 -0.588,3.863 0.943,1.21 2.52,1.989 5.358,1.989 3.138,0 5.326,-1.076 6.412,-4.776 0.41,-1.398 1.576,-12.728 1.576,-12.728 0,0 8.415,14.694 8.817,15.396 0.663,1.16 1.71,2.089 3.744,2.149 C -2.796,5.695 0.488,3.479 0,0 m -51.959,-24.846 c -2.407,0 -7.223,-0.268 -6.05,5.464 0.988,4.818 3.559,16.486 3.559,16.486 h -1.057 c -2.526,0 -3.995,1.233 -3.995,2.996 0,0.94 0.282,3.49 1.11,4.387 0.863,0.935 2.062,1.134 4.294,1.134 h 1.41 l 0.046,0.37 c 1.88,8.987 6.872,11.513 12.629,11.513 3.231,0 5.462,-0.823 6.814,-2.115 0.822,-0.822 1.233,-1.88 1.233,-2.996 0,-1.224 -0.295,-2.473 -0.952,-3.231 -0.16,-0.185 -1.242,-1.256 -2.805,-0.634 -0.77,0.306 -1.638,0.635 -2.645,0.635 -1.763,0 -2.937,-0.764 -3.466,-3.113 L -41.88,5.621 h 2.701 c 2.645,0 4.112,-1.234 4.112,-3.054 0,-0.94 -0.469,-3.23 -1.585,-4.346 -0.705,-0.705 -1.586,-1.117 -3.818,-1.117 h -2.703 l -3.557,-16.486 c -0.882,-4.113 -2.225,-5.464 -5.229,-5.464 m -25.525,8.87 3.348,15.8 c 0.822,4.052 3.351,5.797 6.473,5.797 3.123,0 5.815,-1.233 4.934,-5.403 l -3.596,-16.605 c -0.627,-2.85 -0.34,-4.266 0.955,-5.043 0.557,-0.335 0.872,-1.074 0.141,-1.823 -0.832,-0.852 -2.419,-1.769 -5.324,-1.769 -6.638,0 -7.989,3.995 -6.931,9.046 m 6.005,29.694 c 0.217,3.065 2.511,5.195 6.094,5.195 3.7,0 5.889,-2.244 5.883,-4.962 -0.007,-3.474 -2.89,-5.67 -6.235,-5.67 -3.701,0 -5.918,2.918 -5.742,5.437 m -34.393,-33.083 c 0,0 4.708,21.997 4.973,23.091 0.362,1.501 2.602,1.895 3.548,1.895 2.878,0 5.639,-1.469 6.05,-5.521 1.643,3.583 4.019,6.704 8.124,6.704 3.104,0 5.564,-1.887 5.698,-4.993 0.146,-3.38 -1.613,-5.358 -3.098,-6.318 -0.913,-0.589 -1.826,-0.828 -2.56,-0.18 -0.801,0.71 -2.062,1.384 -3.622,1.384 -3.172,0 -5.289,-4.216 -6.346,-9.031 l -1.49,-7.031 c -0.823,-4.111 -2.426,-5.464 -6.343,-5.464 -3.642,0 -5.815,1.293 -4.934,5.464 m -5.204,-3.19 c -1.528,-1.586 -3.995,-2.407 -7.166,-2.407 -7.46,0 -10.514,4.286 -9.047,11.393 l 2.239,10.642 h -0.646 c -2.467,0 -4.133,0.854 -3.936,2.996 0.086,0.935 0.411,3.23 1.527,4.404 0.764,0.706 1.586,1.116 3.877,1.116 h 0.998 l 0.176,0.882 c 1.059,5.11 4.253,7.466 7.74,7.466 4.866,0 4.317,-2.651 4.141,-3.48 -0.176,-0.83 -1.014,-4.868 -1.014,-4.868 h 3.291 c 2.701,0 4.11,-1.234 4.11,-3.054 0,-0.939 -0.411,-3.23 -1.527,-4.346 -0.764,-0.705 -1.585,-1.116 -3.876,-1.116 h -3.996 l -2.119,-10.113 c -0.529,-2.467 0.41,-3.583 2.115,-3.583 0.837,0 1.687,0.251 2.384,0.666 0.796,0.474 1.764,0.323 2.199,-0.652 0.205,-0.461 0.35,-1.038 0.35,-1.717 0,-1.703 -0.646,-3.053 -1.82,-4.229 m -49.639,10.939 c 0,9.308 7.318,17.21 16.742,17.21 5.035,0 8.43,-1.464 10.537,-3.571 1.405,-1.405 2.049,-3.044 2.049,-4.507 0,-2.757 -1.195,-3.995 -2.714,-4.612 -1.657,-0.673 -4.013,-0.181 -4.8,1.255 -0.862,1.57 -2.399,2.654 -4.837,2.654 -4.098,0 -6.85,-3.63 -6.85,-7.493 0,-3.103 1.99,-5.444 5.562,-5.444 1.882,0 3.482,0.735 4.732,2.125 0.869,0.966 2.147,1.166 3.337,0.69 1.369,-0.547 2.467,-1.904 2.467,-3.985 0,-1.463 -0.701,-2.927 -2.049,-4.274 -1.989,-1.932 -5.269,-3.337 -9.482,-3.337 -8.839,0 -14.694,4.86 -14.694,13.289 m -49.029,-4.184 5.874,27.606 c 0.821,4.053 3.293,5.404 6.344,5.404 3.05,0 5.815,-1.234 4.933,-5.404 l -5.991,-28.017 c -0.628,-2.85 -0.34,-4.266 0.955,-5.043 0.558,-0.335 0.871,-1.076 0.141,-1.824 -0.831,-0.851 -2.42,-1.768 -5.325,-1.768 -6.638,0 -7.988,3.995 -6.931,9.046 m 34.058,14.39 c 2.409,0 3.643,-1.116 3.643,-2.35 0,-1.703 -1.997,-2.936 -8.518,-2.936 -0.763,0 -1.643,0 -2.583,0.058 1.467,2.996 4.17,5.228 7.458,5.228 m -2.819,-23.495 c 4.278,0 7.339,1.066 9.435,2.484 2.953,1.998 3.532,3.736 3.532,5.093 0,2.146 -1.727,3.648 -3.503,3.658 -1.061,0.005 -2.17,-0.538 -3.001,-1.237 -1.612,-1.358 -3.778,-2.302 -6.286,-2.302 -3.583,0 -5.639,1.526 -5.991,4.287 1.703,-0.118 3.231,-0.118 4.698,-0.118 12.864,0 16.682,3.583 16.682,9.633 0,5.462 -4.228,9.105 -12.217,9.105 -10.162,0 -18.325,-7.166 -18.325,-17.798 0,-7.342 4.638,-12.805 14.976,-12.805 m -45.803,23.495 c 2.41,0 3.643,-1.116 3.643,-2.35 0,-1.703 -1.997,-2.936 -8.518,-2.936 -0.763,0 -1.643,0 -2.583,0.058 1.467,2.996 4.17,5.228 7.458,5.228 m 6.616,-21.011 c 2.953,1.998 3.532,3.736 3.532,5.093 0,2.146 -1.726,3.648 -3.503,3.658 -1.061,0.005 -2.17,-0.538 -3.001,-1.237 -1.612,-1.358 -3.778,-2.302 -6.287,-2.302 -3.582,0 -5.638,1.526 -5.99,4.287 1.703,-0.118 3.23,-0.118 4.698,-0.118 12.864,0 16.681,3.583 16.681,9.633 0,5.462 -4.228,9.105 -12.216,9.105 -10.161,0 -18.326,-7.166 -18.326,-17.798 0,-7.342 4.64,-12.805 14.977,-12.805 4.278,0 7.339,1.066 9.435,2.484" /></g><g
           transform="translate(260.111,58.9035)"
           id="g24"><path
             id="path26"
             style="fill:#ffffff;fill-opacity:1;fill-rule:nonzero;stroke:none"
             d="m 0,0 c 0,-2.127 -0.85,-5.53 -1.763,-8.872 -0.849,-2.979 -1.396,-5.857 -1.681,-6.976 -0.449,-1.76 -0.753,-4.816 -2.452,-4.816 -2.431,0 -2.203,1.21 -1.622,4.161 0.33,1.668 1.077,5.077 1.928,8.177 0.851,3.039 1.52,5.956 1.52,7.597 0,4.193 -2.554,6.806 -6.2,6.806 -4.253,0 -6.868,-1.945 -9.723,-6.381 l -3.912,-18.477 c -0.303,-1.458 -1.155,-1.883 -2.188,-1.883 h -0.425 c -1.033,0 -1.641,0.365 -1.337,1.883 l 3.303,15.56 c 1.155,5.47 -1.338,9.298 -5.772,9.298 -4.195,0 -6.868,-1.883 -9.725,-6.381 l -3.893,-18.477 c -0.304,-1.518 -1.156,-1.883 -2.188,-1.883 h -0.426 c -1.034,0 -1.641,0.425 -1.337,1.883 l 5.965,27.821 c 0,0 0.134,0.745 0.971,0.745 1.519,0 2.731,-1.216 2.061,-4.68 l -0.059,-0.183 c 2.309,3.222 5.773,4.863 9.176,4.863 4.559,0 7.841,-2.492 8.996,-6.321 2.309,3.647 5.955,6.321 11.059,6.321 C -3.949,9.785 0,5.592 0,0" /></g><g
           transform="translate(282.7155,65.2248)"
           id="g28"><path
             id="path30"
             style="fill:#ffffff;fill-opacity:1;fill-rule:nonzero;stroke:none"
             d="m 0,0 c 4.375,0 6.502,-2.127 6.502,-4.255 0,-3.039 -2.734,-5.834 -13.189,-5.834 -1.822,0 -4.009,0.121 -6.441,0.425 C -11.123,-4.194 -6.078,0 0,0 m -6.321,-13.432 c 13.006,0 16.835,3.464 16.835,9.238 0,4.558 -3.829,7.658 -10.332,7.658 -10.332,0 -18.233,-8.144 -18.233,-18.597 0,-6.806 4.375,-11.791 12.58,-11.791 4.742,0 8.083,1.216 10.636,3.769 1.032,1.033 1.337,1.64 1.337,2.552 0,0.582 -0.22,1.066 -0.604,1.374 -0.724,0.583 -1.65,0.214 -2.2,-0.402 -2.263,-2.542 -5.005,-3.889 -9.047,-3.889 -5.713,0 -8.691,3.525 -8.691,8.629 0,0.608 0.061,1.278 0.122,1.885 2.917,-0.305 5.348,-0.426 7.597,-0.426" /></g><g
           transform="translate(205.6188,54.8634)"
           id="g32"><path
             id="path34"
             style="fill:#ffffff;fill-opacity:1;fill-rule:nonzero;stroke:none"
             d="m 0,0 c 0,5.952 -4.277,10.292 -9.733,10.292 -6.881,0 -12.276,-6.324 -12.276,-13.64 0,-5.951 4.279,-10.291 9.735,-10.291 C -5.394,-13.639 0,-7.315 0,0 m -26.1,-3.472 c 0,9.176 7.005,17.297 16.615,17.297 7.502,0 13.577,-5.579 13.577,-13.701 0,-9.175 -7.005,-17.297 -16.614,-17.297 -7.502,0 -13.578,5.58 -13.578,13.701" /></g><g
           transform="translate(164.6119,68.6887)"
           id="g36"><path
             id="path38"
             style="fill:#ffffff;fill-opacity:1;fill-rule:nonzero;stroke:none"
             d="m 0,0 c -3.968,0 -7.625,-2.107 -9.795,-5.642 l 3.348,15.686 c 0.309,1.487 -0.62,1.922 -1.674,1.922 h -0.496 c -0.992,0 -1.55,-0.496 -1.86,-1.922 L -18.66,-28.58 c -0.311,-1.488 0.62,-1.922 1.674,-1.922 h 0.496 c 0.991,0 1.55,0.496 1.859,1.922 l 3.72,17.669 c 2.79,4.773 5.828,7.13 10.353,7.13 4.34,0 6.758,-2.666 6.758,-6.944 0,-1.556 -0.592,-4.242 -1.373,-7.103 -0.058,-0.216 -1.895,-8.006 -1.996,-8.517 -0.581,-2.951 -0.809,-4.16 1.623,-4.16 0.246,0 0.46,0.07 0.653,0.186 1.133,0.68 1.414,3.126 1.797,4.631 0.1,0.391 1.869,7.458 1.976,7.86 0.798,3.004 1.474,5.932 1.474,7.847 C 10.354,-4.277 6.51,0 0,0" /></g></g></g><g
       id="g40"><g
         clip-path="url(#clipPath46)"
         id="g42"><g
           id="g48"><g
             id="g50"><path
               id="path58"
               style="fill:url(#linearGradient56);stroke:none"
               d="M 53.692,157.507 41.273,116.805 c 5.625,8.822 15.524,14.305 26.955,14.305 v 0 c 5.096,0 9.257,-0.973 12.475,-2.659 v 0 l 12.991,38.301 z M 88.09,118.055 c 0.071,-0.597 0.189,-1.175 0.189,-1.801 v 0 c 0,-10.39 -6.648,-16.623 -29.192,-16.623 v 0 c -3.118,0 -6.547,0.209 -10.389,0.415 v 0 -0.312 c 0,-7.063 4.363,-11.427 12.363,-11.427 v 0 c 5.554,0 9.36,2.067 12.794,5.127 v 0 c 0.923,0.924 2.198,1.496 3.606,1.496 v 0 c 1.524,0 2.875,-0.682 3.808,-1.741 v 0 l 17.48,22.906 4.123,5.401 z m -37.418,-9.073 c 2.596,-0.208 4.986,-0.313 7.064,-0.313 v 0 c 14.233,0 18.181,3.221 18.181,7.168 v 0 c 0,2.702 -2.806,5.403 -8.312,5.403 v 0 c -7.688,0 -13.921,-5.297 -16.933,-12.258 M 30.602,81.833 42.099,84.31 c -3.866,3.813 -5.764,9.073 -5.764,15.113 v 0 c 0,0.482 0.048,0.945 0.068,1.419 v 0 z M 33.511,30.602 70.806,79.475 C 67.953,78.518 64.66,77.919 60.851,77.919 v 0 c -5.445,0 -9.936,0.997 -13.538,2.751 v 0 z" /></g></g></g></g></g></svg>